# xmcd
#
# Track frame offsets: 
#        150
#        27499
#        49055
#        69647
#        95423
#        134980
#        149884
#        167060
#        196139
#        221474
#        247769
#
# Disc length: 3616 seconds
#
# Revision: 0
# Processed by: cddbd v1.5.2PL0 Copyright (c) Steve Scherf et al.
# Submitted via: ExactAudioCopy v0.95b3
#
DISCID=aa0e1e0b
DTITLE=Matt Schofield - Heads, Tails And Aces
DYEAR=1900
DGENRE=Blues
TTITLE0=What I Wanna Hear
TTITLE1=Live Wire
TTITLE2=War We Wage
TTITLE3=Betting Man
TTITLE4=Lay It Down
TTITLE5=Can't Put You Down
TTITLE6=Woman Across The River
TTITLE7=Nothing Left
TTITLE8=I Told Ya
TTITLE9=Stranger Blues
TTITLE10=Not Raining Now
EXTD=
EXTT0=
EXTT1=
EXTT2=
EXTT3=
EXTT4=
EXTT5=
EXTT6=
EXTT7=
EXTT8=
EXTT9=
EXTT10=
PLAYORDER=
